<?xml version="1.0" encoding="UTF-8" standalone="no"?>
<!DOCTYPE svg PUBLIC "-//W3C//DTD SVG 1.1//EN" "http://www.w3.org/Graphics/SVG/1.1/DTD/svg11.dtd">
<svg width="100%" height="100%" viewBox="0 0 400 325" version="1.1" xmlns="http://www.w3.org/2000/svg" xmlns:xlink="http://www.w3.org/1999/xlink" xml:space="preserve" xmlns:serif="http://www.serif.com/" style="fill-rule:evenodd;clip-rule:evenodd;stroke-linejoin:round;stroke-miterlimit:2;">
    <g id="svgg">
        <path id="path0" d="M222.908,24.572C221.568,24.829 219.594,25.178 218.522,25.348C217.376,25.53 201.431,25.66 179.854,25.665L143.136,25.673L141.023,26.413C135.148,28.47 131.222,33.445 130.617,39.601C129.868,47.211 127.797,50.893 122.702,53.669L120.715,54.752L104.305,54.926C92.431,55.053 87.562,55.213 86.688,55.508C81.969,57.096 80.458,63.524 84.026,66.831C86.104,68.757 85.728,68.711 100.886,68.887C112.034,69.017 114.754,69.131 114.371,69.451C114.107,69.672 112.572,70.719 110.96,71.778C102.047,77.632 92.635,92.538 89.192,106.255C86.097,118.583 86.461,141.794 89.883,150.348L90.73,152.466L89.079,153.91C86.965,155.759 84.126,160.025 82.94,163.133L82.015,165.556L59.079,165.73C34.504,165.915 35.093,165.871 35.093,167.534C35.093,169.028 35.108,169.029 58.668,168.601C72.517,168.349 81.032,168.311 81.219,168.501C81.404,168.688 81.391,169.808 81.184,171.405C80.899,173.613 80.983,185.195 81.301,187.327C81.396,187.968 81.189,187.979 67.454,188.062C52.805,188.151 52.64,188.169 52.64,189.63C52.64,190.945 53.448,191.064 62.374,191.064L70.852,191.064L69.545,192.718C68.825,193.628 68.236,194.542 68.235,194.749C68.234,194.956 68.02,195.534 67.76,196.033C67.5,196.532 67.19,198.067 67.072,199.445C66.666,204.18 64.036,206.336 58.667,206.336C56.821,206.336 52.6,206.961 52.153,207.3C51.974,207.436 51.389,207.651 50.853,207.779C46.853,208.735 40.979,213.051 37.118,217.872C31.863,224.434 30.021,237.431 33.297,244.842C35.722,250.328 37.202,252.57 40.409,255.613C44.076,259.092 44.285,259.225 50.853,262.261C53.751,263.6 55.117,263.668 80.829,263.765C98.937,263.833 105.605,263.957 105.605,264.225C105.605,264.426 105.191,265.265 104.684,266.089C95.253,281.431 105.037,300.047 122.502,299.991C136.733,299.945 152.133,284.518 154.849,267.587C154.964,266.872 155.195,265.74 155.364,265.07L155.67,263.853L228.85,263.765C312.867,263.664 303.765,264.032 311.014,260.448C314.911,258.521 317.798,256.054 321.39,251.583C321.79,251.085 324.295,246.201 324.866,244.804C328.078,236.949 326.567,225.923 321.244,218.38C319.032,215.245 313.535,210.236 312.308,210.236C312.106,210.236 311.942,210.114 311.942,209.966C311.942,209.686 308.818,208.212 307.392,207.819C306.946,207.696 306.288,207.468 305.93,207.312C304.933,206.878 301.21,206.336 299.219,206.336C294.219,206.336 291.631,204.004 291.15,199.063C290.854,196.025 290.237,194.39 288.653,192.445L287.528,191.064L299.994,191.064C313.108,191.064 313.241,191.049 313.241,189.602C313.241,188.154 313.113,188.14 299.908,188.14C293.004,188.14 287.27,188.055 287.166,187.952C287.063,187.848 288.684,186.134 290.768,184.143C292.852,182.152 297.267,177.85 300.58,174.583L306.602,168.643L310.994,168.643C315.603,168.643 316.166,168.484 316.166,167.181C316.166,165.986 315.531,165.719 312.689,165.719C311.206,165.719 309.992,165.633 309.992,165.528C309.992,165.423 314.714,160.488 320.486,154.561C326.258,148.635 332.058,142.652 333.376,141.267C334.694,139.882 335.953,138.749 336.174,138.749C336.764,138.749 341.84,143.792 343.556,146.083C345.53,148.718 348.005,153.072 348.012,153.92C348.013,154.065 348.217,154.574 348.466,155.051C348.715,155.527 349.015,156.486 349.132,157.181C350.106,162.945 358.263,165.695 363.242,161.937C364.489,160.997 364.341,155.215 362.995,152.234C359.277,144.005 354.111,137.207 348.876,133.658C348.132,133.153 347.449,132.658 347.36,132.558C347.271,132.458 346.174,131.796 344.923,131.086C342.975,129.981 341.57,129.316 337.774,127.705C334.31,126.233 333.391,125.671 332.745,124.625C328.413,117.617 305.509,102.047 294.899,98.898C288.087,96.877 287.635,97.17 281.718,107.47C272.711,123.149 265.381,135.175 264.833,135.175C262.658,135.175 253.947,129.551 244.517,122.059C240.764,119.077 236.206,115.654 234.389,114.452C232.572,113.25 230.817,112.087 230.49,111.868C229.944,111.503 230.043,111.341 231.682,109.919C238.72,103.813 242.368,99.181 244.357,93.826C244.738,92.799 245.236,91.958 245.463,91.958C249.596,91.958 254.752,85.427 254.752,80.192C254.752,76.725 255.202,75.825 258.141,73.413C261.553,70.613 263.246,67.354 263.746,62.622C263.993,60.294 263.639,60.461 268.612,60.325C274.267,60.17 279.687,58.478 281.367,56.342C284.022,52.966 277.77,45.893 270.649,44.218C263.912,42.634 258.361,39.99 256.579,37.518C249.416,27.579 235.374,22.18 222.908,24.572M237.693,27.91C251.293,31.93 261.058,44.647 261.05,58.327C261.046,65.428 260.3,67.385 256.029,71.487C252.271,75.096 252.072,75.489 251.841,79.762L251.665,83L250.447,83.287C249.742,83.453 248.51,83.453 247.522,83.287C244.369,82.756 243.441,83.714 244.663,86.238C246.532,90.1 243.193,89.971 236.318,85.916C235.057,85.172 234.175,85.536 234.016,86.867C233.895,87.879 235.392,88.954 239.332,90.686C242.2,91.946 242.215,92.007 240.506,95.31C237.683,100.767 233.167,105.416 225.364,110.901C223.926,111.911 224.846,114.086 226.49,113.564C227.73,113.17 234.112,117.402 242.892,124.441C250.78,130.764 254.958,133.657 259.921,136.23C261.636,137.119 263.146,137.911 263.278,137.99C263.52,138.134 262.648,139.712 262.118,140.089C261.962,140.2 261.142,140.373 260.297,140.473C254.12,141.205 251.108,146.828 255.553,149.33C256.833,150.05 255.794,150.375 253.732,149.899C248.943,148.793 245.776,146.924 241.068,142.428C233.522,135.223 223.133,130.412 213.81,129.807C207.372,129.389 202.027,127.896 199.544,125.824L198.47,124.927L198.859,122.334C199.386,118.811 201.13,111.035 201.473,110.676C201.636,110.506 202.151,110.551 202.714,110.785C204.513,111.529 206.09,109.382 204.387,108.507C204.119,108.369 202.656,107.66 201.137,106.93C197.617,105.24 195.262,103.472 191.321,99.561C187.809,96.076 186.515,95.616 186.515,97.854C186.515,99.2 192.038,104.729 195.888,107.237C199.004,109.266 198.856,108.548 197.431,114.703C194.629,126.812 194.433,140.919 196.966,148.184C197.258,149.021 197.256,149.303 196.96,149.402C195.868,149.766 192.707,152.191 191.965,153.235C190.08,155.885 192.151,156.867 194.665,154.515C200.522,149.037 208.107,152.98 207.683,161.283C207.566,163.576 203.375,165.489 198.375,165.532L195.451,165.556L195.235,163.378C194.852,159.498 191.779,155.445 188.57,154.587C185.299,153.712 175.275,134.969 168.765,117.554C167.447,114.028 166.369,110.999 166.369,110.823C166.369,110.089 165.05,109.767 164.235,110.301C163.243,110.951 163.212,110.656 164.723,114.929C169.644,128.841 175.804,141.813 182.361,152.071L183.919,154.509L182.049,154.612C179.566,154.75 178.309,154.343 173.68,151.9C165.064,147.352 156.406,145.814 149.472,147.598C137.45,150.692 136.563,150.848 132.066,150.647C127.549,150.445 127.051,150.573 127.051,151.934C127.051,154.078 134.067,154.328 141.673,152.454C153.731,149.483 156.325,149.228 161.904,150.46C165.926,151.348 167.753,152.054 172.454,154.534C177.703,157.304 179.451,157.739 184.162,157.448C189.105,157.144 190.902,158.308 192.241,162.682C194.549,170.22 182.468,175.732 172.987,171.466C167.951,169.199 163.177,168.756 158.245,170.097C153.718,171.329 145.025,171.47 128.838,170.576C121.716,170.182 121.202,170.05 121.202,168.616C121.202,164.938 117.897,157.108 116.345,157.108C114.848,157.108 114.574,158.257 115.602,160.228C119.277,167.275 119.652,181.316 116.166,181.316C115.412,181.316 114.703,182.112 114.703,182.959C114.703,183.171 116.868,185.557 119.513,188.261C128.421,197.365 139.206,212.517 143.685,222.22C157.19,251.476 156.132,272.759 140.386,288.575C125.729,303.296 103.987,297.477 103.859,278.798C103.814,272.317 107.186,265.715 112.655,261.575C115.701,259.269 115.82,259.322 115.569,262.857C115.4,265.248 115.453,265.853 115.869,266.269C119.754,270.154 119.363,255.035 115.285,243.704C113.295,238.174 111.424,235.258 105.59,228.595C90.449,211.3 83.834,196.049 83.834,178.438C83.834,161.528 89.664,152.754 101.664,151.603C103.584,151.419 104.305,151.006 104.305,150.09C104.305,148.037 99.14,148.286 93.824,150.595C92.186,151.306 90.686,143.73 89.984,131.202C88.972,113.149 92.417,99.671 101.504,86.133C108.983,74.989 115.273,70.863 132.088,66.071C144.071,62.655 164.106,59.998 163.292,61.932C162.826,63.039 162.943,63.747 163.674,64.24C164.471,64.777 163.886,65.245 171.003,58.383C178.041,51.599 188.93,46.807 197.355,46.786C200.171,46.78 200.7,46.398 201.831,43.562C205.027,35.541 211.559,30.323 221.608,27.762C225.668,26.728 233.952,26.804 237.693,27.91M230.343,43.334C229.841,44.437 230.684,45.491 232.068,45.491C234.411,45.491 237.456,47.916 239.005,51.015C239.68,52.366 241.43,56.944 241.43,57.36C241.43,57.391 240.072,57.505 238.412,57.614C236.753,57.723 234.115,58.111 232.551,58.476C230.987,58.84 229.651,59.139 229.583,59.139C229.516,59.139 229.144,58.627 228.757,58.002C227.01,55.174 225.013,57.266 226.655,60.204C227.894,62.42 228.198,62.59 230.001,62.079C235.251,60.592 240.065,60.101 242.438,60.812C245.535,61.74 245.18,57.161 241.585,49.82C238.987,44.513 231.717,40.319 230.343,43.334M263.35,44.987C264.443,45.424 267.013,46.237 269.062,46.793C274.201,48.188 276.991,50.127 278.768,53.54C279.716,55.36 273.858,57.524 267.945,57.539C264.102,57.548 264.258,57.672 263.834,54.286C263.554,52.051 262.176,47.246 261.102,44.76C260.782,44.019 260.982,44.04 263.35,44.987M67.481,74.288C64.591,76.18 64.573,80.543 67.446,82.735L68.673,83.672L81.696,83.771C96.974,83.887 97.078,83.878 98.727,82.27C100.664,80.381 101.024,78.767 99.992,76.589C98.446,73.324 99.049,73.433 82.76,73.455L68.725,73.474L67.481,74.288M303.366,74.756C298.643,75.304 296.356,76.523 295.164,79.125C294.74,80.053 294.085,81.089 293.71,81.429C291.671,83.274 290.96,90.555 292.592,92.883C300.184,103.713 350.573,112.835 355.753,104.318C357.174,101.982 357.23,93.218 355.847,89.614C352.914,81.972 320.431,72.776 303.366,74.756M319.09,78.144C331.776,79.923 344.372,83.98 350.676,88.318C353.944,90.566 353.57,91.066 350.111,89.074C338.662,82.482 313.522,77.367 300.812,79.044C297.142,79.529 299.007,78.416 303.168,77.639C305.313,77.239 314.778,77.539 319.09,78.144M311.779,81.896C328.62,83.132 348.211,89.243 353.486,94.906C354.792,96.307 354.326,98.182 352.921,97.185C340.889,88.646 306.256,81.876 295.573,85.976C294.787,86.277 294.87,84.334 295.677,83.526C297.298,81.906 303.438,81.284 311.779,81.896M298.18,90.712C300.096,91.877 301.261,92.459 305.28,94.258C306.276,94.703 312.57,96.738 314.216,97.146C315.02,97.346 315.971,97.638 316.328,97.797C321.947,100.284 342.644,102.452 350.135,101.338C353.834,100.787 354.93,102.282 351.832,103.65C345.598,106.403 324.172,104.087 309.829,99.109C300.256,95.787 293.313,91.541 294.707,89.861C295.321,89.121 295.726,89.22 298.18,90.712M287.319,106.661C291.851,115.898 316.834,134.196 329.569,137.608C332.355,138.354 332.431,138.111 327.97,142.759C325.885,144.932 324.083,146.823 323.966,146.961C323.85,147.099 323.044,146.897 322.175,146.513C310.053,141.151 283.751,167.898 289.606,179.634L290.121,180.666L286.815,183.868C284.997,185.629 282.12,188.345 280.422,189.904L277.335,192.738L275.504,192.585C267.61,191.926 252.641,177.534 250.011,168.072C249.334,165.638 249.212,165.962 252.974,160.184C258.918,151.052 260.192,149.042 265.315,140.699C271.136,131.219 277.361,120.784 282.223,112.354C286.349,105.2 286.513,105.018 287.319,106.661M200.812,129.869C203.711,131.284 207.367,132.142 212.224,132.548C222.874,133.436 231.392,137.252 239.373,144.71C244.335,149.346 246.927,150.952 251.756,152.38C253.388,152.863 254.048,153.2 253.887,153.469C253.759,153.683 252.269,155.979 250.576,158.57C248.883,161.162 247.28,163.83 247.014,164.5L246.53,165.719L208.63,165.719L209.4,164.585C213.144,159.068 207.449,148.822 200.638,148.822C200.042,148.822 199.838,148.648 199.838,148.141C199.838,147.766 199.622,146.706 199.358,145.785C198.018,141.11 197.369,128.215 198.5,128.744C198.61,128.796 199.651,129.302 200.812,129.869M364.1,147.075C362.376,148.8 366.132,153.486 368.758,152.887C371.7,152.215 371.871,147.847 368.955,147.847C368.501,147.847 367.557,147.555 366.856,147.197C365.312,146.41 364.789,146.386 364.1,147.075M109.894,151.812C109.184,152.522 109.488,153.314 110.919,154.487C112.679,155.929 113.943,156.036 114.261,154.77C114.679,153.103 111.057,150.649 109.894,151.812M365.832,156.536C365.391,156.635 365.275,157.187 365.182,159.617C365.106,161.612 364.937,162.622 364.663,162.713C363.887,162.972 364.188,164.968 365.113,165.695C367.16,167.306 370.106,165.813 370.106,163.166C370.106,160.302 367.445,156.175 365.832,156.536M318.653,166.313C317.091,168.039 318.331,168.643 323.435,168.643C327.946,168.643 328.513,168.48 328.513,167.181C328.513,165.883 327.945,165.719 323.462,165.719C319.737,165.719 319.122,165.795 318.653,166.313M247.935,170.985C249.679,175.288 253.837,181.032 258.409,185.449C259.744,186.74 260.76,187.873 260.665,187.968C260.57,188.062 229.697,188.14 192.057,188.14L123.622,188.14L121.404,185.905C119.517,184.003 119.237,183.578 119.521,183.046C120.066,182.027 121.136,177.421 121.38,175.043L121.607,172.831L123.273,173.01C135.14,174.283 152.374,174.318 158.353,173.081C164.702,171.767 166.781,171.942 172.218,174.252C180.346,177.704 189.278,175.566 194.494,168.918C194.778,168.556 199.313,168.509 220.945,168.643L247.053,168.806L247.935,170.985M255.219,282.492C240.46,287.681 240.411,307.544 255.145,312.224L257.325,312.916L301.381,312.916C345.309,312.916 345.443,312.914 347.558,312.231C351.942,310.815 355.185,308.168 356.899,304.609C357.41,303.548 357.995,302.33 358.199,301.9C358.412,301.453 358.57,299.499 358.57,297.319C358.57,295.14 358.412,293.185 358.199,292.738C357.995,292.309 357.434,291.14 356.953,290.141C355.814,287.772 353.394,285.24 350.85,283.754C347.498,281.796 350.138,281.898 301.543,281.846L257.189,281.799L255.219,282.492" style="fill:#ff7019;"/>
    </g>
</svg>
