<?xml version="1.0" encoding="UTF-8" standalone="no"?>
<!DOCTYPE svg PUBLIC "-//W3C//DTD SVG 1.1//EN" "http://www.w3.org/Graphics/SVG/1.1/DTD/svg11.dtd">
<svg width="100%" height="100%" viewBox="0 0 16 16" version="1.1" xmlns="http://www.w3.org/2000/svg" xmlns:xlink="http://www.w3.org/1999/xlink" xml:space="preserve" xmlns:serif="http://www.serif.com/" style="fill-rule:evenodd;clip-rule:evenodd;stroke-linejoin:round;stroke-miterlimit:2;">
    <path d="M12.906,6.688C13.76,6.75 14.49,7.099 15.094,7.734C15.698,8.37 16,9.125 16,10C16,10.917 15.672,11.703 15.016,12.359C14.359,13.016 13.573,13.344 12.656,13.344L4,13.344C2.896,13.344 1.953,12.953 1.172,12.172C0.391,11.391 0,10.448 0,9.344C0,8.365 0.349,7.484 1.047,6.703C1.745,5.922 2.583,5.479 3.563,5.375C4,4.563 4.615,3.906 5.406,3.406C6.198,2.906 7.062,2.656 8,2.656C9.125,2.656 10.172,3.052 11.141,3.844C12.109,4.635 12.698,5.583 12.906,6.688Z" style="fill:rgb(255,171,64);"/>
</svg>
