<?xml version="1.0" encoding="UTF-8" standalone="no"?><!DOCTYPE svg PUBLIC "-//W3C//DTD SVG 1.1//EN" "http://www.w3.org/Graphics/SVG/1.1/DTD/svg11.dtd"><svg width="100%" height="100%" viewBox="0 0 16 16" version="1.1" xmlns="http://www.w3.org/2000/svg" xmlns:xlink="http://www.w3.org/1999/xlink" xml:space="preserve" xmlns:serif="http://www.serif.com/" style="fill-rule:evenodd;clip-rule:evenodd;stroke-linejoin:round;stroke-miterlimit:2;"><path d="M12.906,6.688c0.854,0.062 1.584,0.411 2.188,1.046c0.604,0.636 0.906,1.391 0.906,2.266c0,0.917 -0.328,1.703 -0.984,2.359c-0.657,0.657 -1.443,0.985 -2.36,0.985l-8.656,0c-1.104,0 -2.047,-0.391 -2.828,-1.172c-0.781,-0.781 -1.172,-1.724 -1.172,-2.828c0,-0.979 0.349,-1.86 1.047,-2.641c0.698,-0.781 1.536,-1.224 2.516,-1.328c0.437,-0.812 1.052,-1.469 1.843,-1.969c0.792,-0.5 1.656,-0.75 2.594,-0.75c1.125,0 2.172,0.396 3.141,1.188c0.968,0.791 1.557,1.739 1.765,2.844Z"/></svg>